<svg xmlns="http://www.w3.org/2000/svg" width="24" height="23" fill="none" viewBox="0 0 24 23">
  <path fill="#000" d="M0 7.566c0 5.337 4.315 10.586 11.118 15.096.266.162.628.338.882.338s.616-.175.87-.338C19.686 18.152 24 12.903 24 7.567 24 3.132 21.063 0 17.148 0 14.9 0 13.088 1.103 12 2.794 10.912 1.115 9.088 0 6.852 0 2.937 0 0 3.132 0 7.567m1.945 0c0-3.332 2.079-5.55 4.883-5.55 2.271 0 3.564 1.466 4.35 2.72.326.5.532.638.821.638.29 0 .472-.15.822-.639.822-1.228 2.09-2.718 4.35-2.718 2.804 0 4.883 2.217 4.883 5.55 0 4.659-4.75 9.682-9.813 13.165-.12.087-.193.15-.242.15-.048 0-.133-.062-.253-.15-5.051-3.483-9.8-8.506-9.8-13.166"/>
</svg>
