<svg xmlns="http://www.w3.org/2000/svg" width="22" height="22" fill="none" viewBox="0 0 18 18">
  <path fill="#C2C2C2" d="M12.273 6.545a1.65 1.65 0 0 0-1.636 1.49l1.783 1.783c2.078-.196 1.94-3.273-.147-3.273Zm-.818 4.378 3.232 3.24v-.009M5.433 4.91 9.532 9l-4.09-4.09m10.104 0h-.696a4.49 4.49 0 0 0-5.163 0H7.52l2.136 2.135c.802-1.857 3.215-2.315 4.663-.883 1.408 1.423.95 3.837-.908 4.639l2.283 2.29a1.645 1.645 0 0 0 1.489-1.636v-4.91c0-.9-.736-1.636-1.636-1.636Zm-3.273 1.636a1.65 1.65 0 0 0-1.636 1.49l1.783 1.783c2.078-.196 1.94-3.273-.147-3.273Zm0 0a1.65 1.65 0 0 0-1.636 1.49l1.783 1.783c2.078-.196 1.94-3.273-.147-3.273Zm5.114 10.318L1.252.728l-1.04 1.04 3.143 3.14h-.9c-.9 0-1.637.737-1.637 1.637v4.91a1.636 1.636 0 0 0 1.637 1.636h.818v.818c0 .45.368.818.818.818h1.636a.82.82 0 0 0 .819-.818v-.818h4.909v.818c0 .45.368.818.818.818h.9l3.19 3.183 1.032-1.047M5.727 10.636H2.455v-.818h3.272m0-.818H2.455v-.818h3.272m0-.819H2.455v-.818H4.99l.736.737M1.26.728l4.173 4.18L1.252.729m4.19 4.18L9.531 9l-4.1-4.091m9.255 9.245v.009l-3.232-3.24M5.433 4.909 1.252.728h.008M9.532 9l-4.1-4.091h.01m9.245 9.245v.009l-3.232-3.24"/>
</svg>
