<svg xmlns="http://www.w3.org/2000/svg" width="22" height="20" fill="none" viewBox="0 0 22 20">
  <path fill="#C2C2C2" d="M0 6.323c0 4.46 3.955 8.846 10.191 12.614.244.136.576.283.809.283.232 0 .565-.146.798-.283C18.045 15.168 22 10.782 22 6.323 22 2.617 19.308 0 15.719 0 13.659 0 11.997.921 11 2.335 10.003.932 8.33 0 6.281 0 2.692 0 0 2.617 0 6.323m1.783 0c0-2.784 1.905-4.637 4.476-4.637 2.082 0 3.267 1.225 3.987 2.272.3.418.488.533.753.533.267 0 .432-.125.754-.533.753-1.026 1.916-2.272 3.988-2.272 2.57 0 4.475 1.853 4.475 4.638 0 3.893-4.354 8.091-8.995 11.001-.11.074-.177.126-.222.126-.044 0-.121-.052-.232-.126-4.63-2.91-8.983-7.108-8.983-11.002"/>
</svg>
