<?xml version="1.0" standalone="no"?>
<!DOCTYPE svg PUBLIC "-//W3C//DTD SVG 20010904//EN"
 "http://www.w3.org/TR/2001/REC-SVG-20010904/DTD/svg10.dtd">
<svg version="1.0" xmlns="http://www.w3.org/2000/svg"
 width="1247.000000pt" height="1250.000000pt" viewBox="0 0 1247.000000 1250.000000"
 preserveAspectRatio="xMidYMid meet">

<g transform="translate(0.000000,1250.000000) scale(0.100000,-0.100000)"
fill="#000000" stroke="none">
<path d="M6118 11794 c-38 -19 -68 -39 -68 -44 0 -6 -7 -10 -15 -10 -17 0 -76
-28 -85 -39 -3 -4 -25 -17 -48 -29 -24 -13 -71 -40 -105 -62 -33 -22 -66 -40
-73 -40 -6 0 -17 -7 -24 -15 -7 -8 -31 -24 -54 -35 -22 -12 -59 -32 -81 -45
-22 -13 -62 -36 -90 -51 -27 -15 -52 -30 -55 -34 -3 -4 -26 -17 -52 -28 -27
-11 -48 -25 -48 -30 0 -6 -12 -13 -26 -16 -15 -4 -41 -17 -58 -29 -52 -37
-132 -83 -235 -136 -25 -13 -48 -26 -51 -30 -3 -3 -16 -12 -30 -18 -42 -21
-109 -60 -125 -73 -9 -7 -38 -23 -65 -36 -28 -13 -50 -28 -50 -34 0 -5 -8 -10
-18 -10 -11 0 -39 -13 -63 -30 -24 -16 -48 -30 -52 -30 -5 0 -23 -11 -41 -25
-18 -14 -37 -25 -43 -25 -5 0 -18 -8 -29 -19 -11 -10 -36 -23 -56 -30 -20 -6
-44 -21 -53 -31 -10 -11 -25 -20 -34 -20 -9 0 -34 -14 -55 -30 -22 -17 -44
-30 -49 -30 -6 0 -18 -7 -27 -15 -19 -17 -77 -50 -157 -89 -29 -14 -53 -30
-53 -35 0 -6 -7 -11 -15 -11 -9 0 -34 -12 -58 -27 -66 -43 -79 -50 -134 -79
-29 -14 -53 -30 -53 -34 0 -4 -20 -15 -44 -24 -25 -9 -50 -24 -56 -32 -7 -7
-19 -14 -26 -14 -8 0 -33 -13 -56 -30 -22 -16 -46 -30 -51 -30 -6 0 -18 -7
-27 -15 -18 -16 -59 -40 -157 -90 -29 -14 -53 -31 -53 -36 0 -5 -8 -9 -18 -9
-11 0 -37 -13 -59 -29 -22 -16 -49 -32 -61 -35 -12 -4 -22 -11 -22 -15 0 -5
-15 -14 -32 -22 -18 -7 -46 -22 -62 -33 -17 -11 -44 -28 -60 -37 -17 -9 -51
-28 -76 -42 -61 -36 -124 -71 -187 -102 -29 -15 -57 -33 -64 -41 -6 -8 -17
-14 -23 -14 -6 0 -48 -24 -93 -53 -101 -64 -135 -84 -195 -113 -27 -13 -48
-28 -48 -34 0 -5 -8 -10 -17 -10 -10 0 -38 -14 -63 -30 -25 -16 -49 -30 -54
-30 -5 0 -17 -7 -26 -15 -19 -17 -77 -50 -157 -89 -29 -14 -53 -30 -53 -35 0
-6 -6 -11 -14 -11 -8 0 -43 -18 -77 -40 -35 -22 -87 -51 -115 -65 -29 -13 -54
-27 -55 -32 -2 -4 -24 -18 -49 -31 -115 -58 -154 -94 -169 -154 -15 -61 -16
-5437 -1 -5519 11 -60 35 -86 117 -129 26 -14 50 -28 53 -31 3 -3 21 -14 40
-24 19 -10 42 -22 50 -27 45 -26 76 -45 107 -65 18 -13 39 -23 45 -23 6 0 19
-6 27 -14 16 -14 78 -50 156 -89 22 -12 42 -24 45 -28 3 -3 28 -18 55 -33 28
-15 66 -36 85 -48 61 -36 134 -77 170 -95 19 -10 48 -28 63 -40 16 -13 33 -23
39 -23 6 0 26 -11 44 -25 18 -14 38 -25 45 -25 7 0 20 -7 29 -15 17 -15 80
-52 140 -82 19 -10 48 -28 63 -40 16 -13 33 -23 38 -23 5 0 27 -11 49 -25 22
-14 46 -25 54 -25 7 0 20 -7 27 -17 8 -9 33 -25 56 -35 23 -10 45 -23 48 -28
3 -5 25 -18 48 -28 23 -10 48 -26 56 -35 7 -10 20 -17 28 -17 8 0 29 -11 47
-25 18 -14 38 -25 45 -25 6 0 30 -13 53 -30 22 -16 49 -30 60 -30 10 0 18 -4
18 -10 0 -5 21 -21 48 -35 26 -15 74 -42 107 -61 33 -19 69 -38 81 -43 11 -5
38 -21 59 -35 21 -14 46 -26 56 -26 11 0 19 -4 19 -10 0 -5 23 -22 51 -37 84
-46 103 -57 136 -81 17 -12 35 -22 40 -22 4 0 28 -14 53 -30 25 -16 53 -30 63
-30 10 0 20 -6 23 -14 3 -8 20 -20 37 -27 18 -7 46 -23 64 -36 17 -12 37 -23
43 -23 6 0 26 -11 44 -25 18 -14 38 -25 45 -25 6 0 30 -14 53 -30 22 -16 49
-30 59 -30 10 0 22 -6 26 -14 4 -7 28 -24 53 -36 25 -12 47 -26 50 -30 5 -6
17 -13 115 -64 22 -11 55 -31 74 -43 19 -13 42 -23 51 -23 10 0 20 -6 23 -14
3 -8 25 -24 49 -35 24 -12 66 -35 93 -51 28 -17 66 -38 85 -46 19 -9 37 -19
40 -23 10 -13 60 -41 73 -41 8 0 22 -9 32 -20 10 -11 22 -20 28 -20 5 0 29
-13 54 -30 24 -16 49 -30 55 -30 6 0 19 -6 27 -14 16 -15 78 -51 141 -83 19
-10 48 -28 63 -40 16 -13 33 -23 39 -23 6 0 26 -11 44 -25 18 -14 38 -25 44
-25 7 0 24 -8 38 -19 15 -10 43 -26 62 -35 19 -9 60 -32 90 -51 65 -40 111
-66 205 -114 95 -48 147 -48 238 -2 37 19 72 40 78 48 6 7 18 13 25 13 8 0 36
13 62 30 27 16 53 30 57 30 5 0 16 6 24 14 19 17 89 57 147 85 23 11 45 24 48
30 4 6 28 20 54 31 25 11 49 24 52 28 3 4 21 15 40 26 104 56 130 70 180 101
30 18 73 43 95 54 22 11 67 37 100 56 33 19 71 40 85 46 13 6 27 14 30 18 3 5
29 20 58 35 28 14 52 31 52 36 0 6 8 10 18 10 9 0 37 14 62 30 25 16 49 30 53
30 5 0 23 11 41 25 18 14 40 25 48 25 9 0 22 7 29 16 8 9 32 25 54 34 22 9 46
25 54 34 7 9 20 16 28 16 12 0 60 26 73 40 3 3 16 11 30 18 14 6 52 27 85 46
33 19 81 46 108 61 26 14 47 30 47 35 0 6 8 10 18 10 10 0 26 6 37 14 11 7 47
28 80 46 33 18 78 43 100 56 22 12 56 32 76 43 19 11 41 27 48 35 8 9 20 16
27 16 11 0 67 29 134 71 8 5 31 17 50 26 19 10 48 28 63 40 16 13 34 23 41 23
8 0 26 10 41 22 15 12 42 29 59 38 17 9 58 31 91 50 33 18 76 42 97 51 20 10
38 22 40 26 1 5 24 18 51 30 26 13 47 27 47 33 0 5 7 10 16 10 8 0 34 13 57
28 23 15 53 34 67 41 14 6 48 25 75 41 28 16 69 38 92 50 23 12 47 28 54 36 6
8 18 14 26 14 8 0 27 8 41 19 26 18 56 36 152 90 25 13 47 28 50 32 3 4 21 14
40 23 19 8 62 31 95 51 33 19 74 42 92 50 17 8 34 19 38 25 3 5 25 18 48 28
23 10 48 26 56 35 7 10 19 17 26 17 17 0 75 33 75 43 0 4 7 7 16 7 8 0 35 14
59 30 24 17 50 30 58 30 8 0 22 9 32 20 10 11 27 22 39 26 11 4 34 16 50 27
17 12 44 28 60 37 17 9 58 31 91 50 33 18 72 40 87 47 15 8 30 18 33 23 3 5
20 16 38 25 18 9 40 27 50 40 18 26 19 267 17 5008 l0 598 -32 30 c-18 17 -53
42 -78 55 -25 13 -63 36 -85 50 -22 13 -59 34 -82 45 -23 11 -45 24 -49 30 -3
6 -25 19 -48 30 -22 11 -66 35 -96 54 -30 19 -67 40 -82 46 -16 6 -28 14 -28
19 0 4 -21 18 -47 30 -67 31 -192 101 -278 155 -22 14 -63 37 -92 50 -28 14
-57 32 -63 40 -7 8 -18 15 -25 15 -6 0 -31 14 -53 30 -23 17 -49 30 -57 30 -8
0 -15 4 -15 8 0 5 -21 19 -47 32 -27 13 -64 34 -83 47 -19 13 -43 23 -52 23
-10 0 -18 5 -18 11 0 5 -20 19 -45 30 -24 11 -68 35 -97 55 -29 19 -70 42 -90
51 -21 9 -38 20 -38 24 0 3 -22 16 -49 28 -28 11 -53 25 -56 31 -3 5 -25 19
-48 30 -50 25 -92 49 -130 74 -32 21 -75 46 -127 72 -19 10 -42 24 -51 32 -9
7 -32 21 -50 31 -19 10 -56 31 -84 46 -27 16 -72 41 -100 56 -112 63 -143 81
-200 119 -33 21 -67 39 -76 39 -9 1 -23 8 -30 18 -8 9 -32 25 -54 36 -46 22
-110 58 -187 105 -29 17 -62 37 -73 44 -11 6 -27 15 -35 20 -8 5 -39 20 -67
34 -29 14 -53 29 -53 34 0 5 -10 12 -22 16 -13 3 -41 19 -62 35 -22 16 -48 29
-57 29 -9 0 -19 6 -22 14 -3 8 -26 22 -51 31 -25 10 -46 21 -46 25 0 4 -22 17
-49 29 -28 11 -53 26 -56 31 -4 6 -21 17 -38 25 -18 8 -54 28 -82 45 -27 17
-69 39 -92 50 -23 12 -45 24 -47 29 -3 5 -29 20 -58 35 -64 32 -115 62 -147
87 -13 10 -32 19 -42 19 -11 0 -19 4 -19 9 0 5 -24 22 -52 36 -104 53 -255
141 -263 155 -3 5 -13 10 -22 10 -8 0 -28 11 -45 25 -16 14 -36 25 -43 25 -7
0 -26 10 -42 23 -32 25 -55 39 -132 79 -30 16 -63 35 -75 43 -11 8 -27 15 -35
15 -7 0 -19 8 -26 17 -9 11 -30 17 -71 19 -51 3 -68 -2 -126 -32z m202 -543
c5 -7 68 -42 150 -83 25 -13 47 -26 50 -29 5 -7 23 -17 148 -85 26 -14 54 -32
63 -40 8 -8 23 -14 31 -14 9 0 21 -6 27 -14 7 -8 31 -24 54 -36 23 -11 67 -36
97 -55 30 -19 66 -40 80 -47 14 -7 42 -23 62 -35 21 -13 42 -23 48 -23 6 0 29
-13 52 -30 22 -16 47 -30 53 -30 7 0 18 -6 24 -14 7 -8 29 -23 49 -34 86 -46
107 -57 112 -63 6 -6 56 -34 80 -44 8 -3 40 -21 70 -40 30 -19 75 -46 100 -60
25 -14 68 -39 95 -56 28 -16 65 -36 84 -45 18 -8 42 -24 54 -35 11 -10 26 -19
33 -19 7 0 26 -11 42 -25 17 -14 33 -25 37 -25 4 0 30 -13 57 -30 26 -16 55
-30 63 -30 8 0 15 -5 15 -11 0 -5 24 -21 53 -35 28 -14 77 -40 107 -59 30 -19
69 -41 85 -49 17 -9 53 -29 80 -46 28 -17 73 -42 100 -56 28 -13 73 -39 102
-57 29 -18 80 -49 113 -69 34 -21 67 -38 74 -38 8 0 20 -7 27 -16 8 -9 32 -25
54 -36 22 -10 65 -34 95 -53 30 -19 65 -39 78 -45 12 -5 39 -21 60 -35 20 -14
45 -25 54 -25 10 0 18 -5 18 -11 0 -5 24 -21 53 -35 28 -13 84 -44 122 -69 39
-24 76 -44 83 -45 6 0 12 -3 12 -7 0 -10 58 -43 75 -43 7 0 18 -7 25 -15 7 -8
31 -24 54 -36 55 -27 103 -54 118 -67 14 -11 86 -51 153 -85 22 -12 42 -24 45
-28 3 -3 23 -16 46 -27 22 -11 46 -28 53 -36 8 -9 20 -16 27 -16 8 0 33 -13
56 -30 22 -16 47 -30 54 -30 7 0 26 -14 43 -31 25 -25 31 -39 31 -75 0 -31 -4
-44 -14 -44 -7 0 -19 -7 -27 -16 -12 -15 -55 -40 -165 -96 -30 -15 -54 -32
-54 -38 0 -5 -9 -10 -20 -10 -11 0 -39 -14 -62 -30 -22 -16 -46 -30 -51 -30
-6 0 -18 -7 -27 -15 -19 -17 -79 -51 -150 -85 -25 -12 -49 -28 -53 -36 -4 -8
-14 -14 -21 -14 -8 0 -43 -18 -77 -40 -35 -22 -88 -51 -116 -64 -29 -14 -53
-29 -53 -34 0 -6 -12 -13 -27 -17 -15 -3 -40 -16 -57 -28 -41 -29 -62 -42
-118 -70 -26 -13 -54 -29 -62 -36 -8 -7 -40 -15 -70 -18 -54 -6 -57 -5 -96 33
-22 21 -40 42 -40 45 0 4 -11 20 -24 35 -99 117 -136 164 -136 172 0 5 -11 17
-25 26 -14 9 -25 21 -25 27 0 6 -53 62 -117 125 -153 149 -159 154 -167 154
-4 0 -55 41 -114 90 -59 50 -118 100 -130 110 -13 11 -30 20 -38 20 -8 0 -14
4 -14 10 0 5 -19 19 -41 31 -23 11 -69 39 -103 62 -79 54 -94 62 -266 148
-201 99 -305 143 -390 164 -14 4 -54 17 -90 30 -129 45 -236 75 -268 75 -18 0
-81 11 -140 24 -185 42 -296 51 -617 51 -326 0 -529 -17 -662 -55 -40 -11 -87
-20 -105 -20 -36 0 -95 -14 -143 -34 -16 -7 -52 -18 -80 -25 -27 -7 -63 -18
-80 -26 -16 -7 -46 -17 -65 -21 -19 -3 -58 -17 -87 -30 -28 -13 -56 -24 -61
-24 -5 0 -41 -14 -78 -31 -38 -17 -89 -40 -114 -51 -89 -39 -176 -83 -206
-105 -17 -13 -36 -23 -41 -23 -6 0 -16 -7 -23 -15 -7 -9 -37 -27 -67 -41 -29
-14 -53 -30 -53 -35 0 -5 -7 -9 -15 -9 -16 0 -115 -72 -172 -126 -20 -19 -39
-34 -43 -34 -3 0 -17 -11 -30 -25 -13 -14 -28 -25 -33 -25 -5 0 -21 -11 -35
-24 -130 -116 -177 -160 -243 -226 -42 -43 -103 -109 -135 -146 -32 -38 -64
-75 -71 -82 -7 -7 -13 -17 -13 -22 0 -5 -10 -20 -22 -33 -13 -13 -34 -39 -48
-57 -27 -36 -35 -45 -69 -72 -26 -22 -103 -24 -121 -4 -6 8 -31 23 -56 32 -24
9 -44 20 -44 24 0 4 -18 15 -40 25 -22 10 -47 26 -56 36 -10 11 -23 19 -30 19
-7 0 -33 14 -57 30 -25 17 -52 30 -61 30 -9 0 -16 4 -16 9 0 5 -24 21 -52 36
-76 38 -109 57 -145 83 -17 12 -36 22 -41 22 -6 0 -17 7 -25 15 -8 8 -37 25
-63 39 -27 14 -71 37 -99 51 -27 14 -78 43 -112 65 -35 21 -72 41 -83 45 -11
3 -20 10 -20 14 0 4 -19 16 -42 26 -24 11 -51 27 -60 36 -10 10 -25 22 -34 27
-8 5 -18 27 -21 49 -5 36 -2 43 28 72 19 18 43 37 54 42 11 5 47 27 80 48 33
22 81 50 108 62 26 12 47 24 47 28 0 4 12 12 28 18 15 7 54 28 87 47 33 19 80
46 105 61 25 14 68 39 95 55 28 16 64 36 80 45 17 8 55 31 85 50 30 19 76 45
102 59 26 14 49 30 53 36 3 5 12 10 20 10 7 0 54 25 103 55 50 30 94 55 100
55 5 0 15 7 22 15 7 9 35 25 61 36 27 12 54 27 60 35 6 8 19 14 29 14 10 0 23
6 29 14 7 8 31 24 54 36 23 11 67 36 97 55 30 19 74 44 97 55 23 12 47 28 54
36 6 8 16 14 21 14 5 0 40 19 79 43 78 47 117 69 204 117 87 48 202 113 280
160 28 17 68 39 90 50 44 22 79 42 142 83 24 15 47 27 52 27 5 0 14 7 21 15 7
8 31 24 54 35 22 11 66 34 96 51 30 17 71 40 90 51 19 10 60 34 90 53 49 31
102 61 179 105 15 8 72 39 126 69 55 29 105 59 110 65 6 6 30 21 55 34 42 21
74 39 175 97 22 13 60 35 85 50 25 14 68 39 95 55 28 17 64 37 80 45 17 9 59
34 95 57 36 22 81 45 100 49 38 8 152 2 160 -10z m80 -2115 c52 -9 145 -19
205 -22 69 -5 139 -16 189 -30 44 -13 90 -24 102 -24 25 0 182 -48 281 -86 34
-13 70 -24 80 -24 10 0 39 -11 65 -25 26 -14 54 -25 63 -25 8 0 33 -11 55 -25
22 -14 47 -25 55 -25 8 0 32 -10 53 -23 20 -12 48 -28 62 -36 51 -26 120 -67
180 -108 34 -24 66 -43 71 -43 5 0 19 -11 31 -25 12 -14 26 -25 31 -25 10 0
109 -80 120 -97 4 -7 14 -13 21 -13 7 0 22 -10 33 -22 12 -13 49 -48 84 -78
123 -109 289 -285 289 -306 0 -8 4 -14 9 -14 12 0 81 -118 81 -138 0 -31 -37
-78 -86 -110 -27 -17 -54 -36 -60 -41 -7 -6 -27 -16 -46 -24 -19 -8 -40 -20
-48 -28 -8 -8 -31 -22 -50 -31 -19 -10 -53 -29 -75 -43 -22 -13 -66 -38 -97
-55 -32 -17 -58 -35 -58 -40 0 -6 -8 -10 -18 -10 -11 0 -38 -13 -60 -30 -23
-16 -47 -30 -54 -30 -6 0 -19 -6 -27 -14 -18 -16 -86 -56 -148 -86 -23 -11
-45 -25 -48 -30 -3 -5 -25 -18 -48 -28 -23 -10 -48 -26 -56 -35 -7 -10 -20
-17 -28 -17 -7 0 -26 -8 -41 -19 -46 -31 -95 -59 -149 -85 -29 -14 -53 -30
-53 -35 0 -6 -8 -11 -18 -11 -9 0 -35 -12 -57 -27 -49 -34 -87 -55 -141 -82
-23 -10 -45 -24 -48 -30 -4 -6 -26 -19 -49 -30 -23 -11 -51 -26 -62 -33 -11
-7 -38 -24 -60 -37 -54 -34 -92 -55 -145 -80 -24 -12 -47 -25 -50 -30 -3 -4
-25 -18 -50 -29 -25 -12 -54 -27 -65 -34 -11 -7 -38 -24 -60 -38 -22 -13 -49
-30 -60 -37 -11 -7 -42 -24 -70 -39 -27 -14 -61 -32 -75 -40 -28 -15 -140 -19
-140 -4 0 5 -17 16 -37 25 -21 9 -45 21 -53 26 -8 5 -38 21 -67 35 -28 13 -57
31 -63 39 -7 8 -18 15 -24 15 -6 0 -29 14 -50 30 -22 17 -46 30 -53 30 -8 0
-24 9 -36 20 -12 12 -33 23 -47 27 -14 3 -34 14 -45 24 -11 10 -36 25 -56 33
-20 8 -41 22 -49 30 -7 9 -18 16 -25 16 -6 0 -31 14 -53 30 -23 17 -46 30 -51
30 -6 0 -27 11 -47 25 -21 14 -48 28 -61 31 -13 4 -23 10 -23 15 0 5 -20 18
-44 30 -25 11 -50 27 -57 35 -6 8 -17 14 -23 14 -6 0 -31 14 -56 30 -25 16
-53 30 -62 30 -10 0 -18 5 -18 11 0 5 -24 21 -52 35 -29 13 -84 44 -123 69
-38 24 -76 44 -82 45 -7 0 -13 3 -13 8 0 9 -58 42 -75 42 -7 0 -18 7 -25 15
-7 8 -31 24 -54 35 -55 27 -150 81 -156 89 -5 7 -53 33 -115 65 -22 11 -42 23
-45 28 -3 4 -26 17 -50 28 -25 11 -76 41 -115 65 -38 24 -76 44 -82 45 -7 0
-13 4 -13 9 0 5 -24 21 -53 35 -30 14 -60 32 -67 41 -7 8 -19 15 -27 15 -23 0
-14 132 10 157 10 10 41 50 69 88 62 83 223 247 328 333 41 34 85 69 96 79 12
10 28 23 37 28 8 6 43 31 76 58 34 26 65 47 69 47 5 0 19 11 32 25 13 14 27
25 31 25 4 0 36 18 70 40 35 22 84 51 109 65 25 14 52 29 60 34 28 17 149 71
159 71 6 0 34 10 63 23 82 36 223 84 363 122 33 9 93 26 133 37 41 11 124 24
185 29 135 11 350 38 357 46 8 8 134 -3 240 -21z m-4391 -730 c9 -7 36 -24 59
-37 58 -32 89 -50 135 -77 21 -12 45 -22 53 -22 8 0 14 -4 14 -8 0 -5 24 -21
53 -35 30 -14 60 -33 67 -42 7 -8 16 -15 21 -15 5 0 28 -12 52 -27 42 -27 52
-33 137 -80 95 -53 142 -79 209 -120 39 -24 73 -43 76 -43 4 0 21 -11 39 -25
18 -14 36 -25 41 -25 20 0 148 -95 166 -123 24 -39 21 -68 -16 -162 -90 -231
-138 -372 -161 -477 -8 -37 -22 -87 -30 -110 -8 -24 -18 -81 -21 -128 -3 -47
-10 -93 -14 -102 -18 -34 -39 -306 -39 -497 0 -209 11 -361 35 -501 8 -47 19
-112 23 -145 13 -87 76 -324 118 -445 39 -110 54 -152 67 -182 8 -18 20 -52
27 -76 7 -23 19 -47 27 -53 7 -6 13 -17 13 -23 0 -14 126 -263 144 -286 7 -8
21 -34 31 -57 10 -24 22 -43 27 -43 4 0 8 -6 8 -13 0 -7 13 -31 30 -53 16 -21
30 -44 30 -50 0 -6 11 -21 25 -34 14 -13 25 -28 25 -34 0 -6 9 -19 20 -31 11
-11 42 -47 68 -80 48 -62 96 -118 145 -168 15 -16 27 -33 27 -38 0 -4 11 -16
25 -25 13 -9 27 -24 30 -35 4 -10 12 -19 20 -19 7 0 20 -11 29 -24 8 -14 25
-27 36 -31 11 -3 20 -13 20 -20 0 -8 9 -19 20 -25 11 -6 32 -22 47 -36 127
-116 210 -184 226 -184 9 0 19 -9 22 -20 3 -11 17 -23 31 -26 13 -3 24 -10 24
-15 0 -4 20 -20 44 -34 24 -14 50 -32 56 -40 7 -8 20 -15 30 -15 10 0 24 -7
31 -17 8 -9 33 -25 56 -35 23 -10 45 -23 48 -28 4 -6 27 -22 53 -35 26 -14 54
-29 62 -33 16 -9 78 -39 191 -91 36 -17 71 -31 77 -31 6 0 26 -9 44 -19 18
-11 53 -25 78 -31 25 -6 64 -20 87 -31 24 -10 52 -19 63 -19 11 0 46 -11 78
-24 31 -13 79 -27 106 -31 26 -3 75 -15 107 -25 33 -11 101 -22 152 -26 50 -3
124 -16 162 -28 66 -20 91 -21 420 -21 329 0 354 1 420 21 39 12 113 25 166
28 53 3 123 15 157 26 33 11 88 24 123 29 35 5 82 17 104 26 22 10 65 24 95
32 30 8 64 20 75 27 11 7 36 16 55 20 19 3 55 16 80 27 25 12 72 33 105 48 72
33 124 58 145 69 8 5 31 17 50 27 19 9 60 31 90 48 30 17 67 37 82 44 15 8 30
18 33 23 3 4 26 18 51 30 25 13 48 29 51 36 3 8 12 14 20 14 8 0 31 12 49 28
19 15 49 39 68 55 18 15 38 27 44 27 6 0 17 8 24 18 7 10 21 23 30 28 55 30
418 386 509 499 27 33 55 67 62 76 7 8 35 47 62 85 27 38 53 72 58 75 9 6 35
52 67 116 11 23 25 45 30 48 11 7 32 44 127 229 34 67 63 126 63 133 0 6 11
34 25 61 14 28 25 55 25 61 0 7 11 33 24 59 13 26 26 63 30 83 4 21 13 50 21
66 8 16 21 60 29 98 8 39 21 86 29 105 9 19 18 58 22 85 4 28 18 92 31 144 13
51 24 114 24 140 0 25 7 102 15 171 27 229 11 679 -31 895 -9 44 -21 107 -26
140 -5 33 -20 94 -33 135 -13 41 -27 95 -31 120 -4 25 -15 63 -25 84 -10 22
-22 55 -25 75 -4 20 -17 56 -29 81 -42 85 -75 180 -75 218 0 45 41 96 105 131
22 12 58 33 80 46 22 13 58 34 80 46 22 12 42 25 45 28 3 4 23 16 45 28 71 36
140 74 155 87 8 7 26 18 40 24 14 7 50 28 80 47 30 19 66 39 80 45 14 6 39 22
57 36 17 13 38 24 47 24 8 0 18 5 21 10 4 6 27 22 53 35 62 33 104 58 139 80
106 71 219 103 263 75 13 -8 15 -280 15 -2345 l0 -2336 -43 -39 c-23 -22 -57
-47 -75 -56 -18 -9 -34 -20 -37 -24 -3 -3 -26 -17 -52 -29 -27 -13 -48 -27
-48 -31 0 -5 -13 -11 -30 -15 -16 -4 -30 -10 -30 -14 0 -4 -20 -18 -45 -30
-24 -12 -47 -26 -50 -31 -3 -5 -30 -20 -60 -34 -30 -14 -55 -30 -55 -35 0 -6
-8 -11 -18 -11 -11 0 -39 -13 -63 -30 -24 -16 -47 -30 -50 -30 -4 0 -36 -18
-70 -40 -35 -22 -84 -50 -109 -61 -25 -11 -49 -27 -53 -35 -4 -8 -16 -14 -25
-14 -9 0 -37 -14 -62 -30 -25 -16 -49 -30 -53 -30 -5 0 -23 -11 -41 -25 -18
-14 -38 -25 -44 -25 -7 0 -21 -9 -31 -19 -11 -11 -40 -28 -65 -40 -25 -11 -46
-25 -46 -30 0 -6 -9 -11 -20 -11 -11 0 -39 -13 -62 -30 -22 -16 -46 -30 -51
-30 -6 0 -18 -7 -27 -15 -19 -17 -77 -50 -157 -89 -29 -14 -53 -30 -53 -35 0
-6 -7 -11 -16 -11 -8 0 -34 -12 -57 -27 -71 -47 -80 -52 -134 -79 -29 -15 -53
-30 -53 -34 0 -4 -20 -15 -44 -24 -25 -9 -50 -24 -56 -32 -7 -7 -19 -14 -27
-14 -8 0 -34 -13 -58 -30 -24 -16 -47 -30 -51 -30 -4 0 -15 -7 -24 -15 -19
-17 -77 -50 -157 -89 -29 -14 -53 -30 -53 -35 0 -6 -8 -11 -18 -11 -10 0 -36
-13 -58 -29 -21 -16 -49 -32 -61 -35 -13 -4 -23 -11 -23 -16 0 -5 -25 -20 -55
-34 -30 -14 -55 -30 -55 -35 0 -6 -9 -11 -21 -11 -11 0 -35 -10 -52 -22 -38
-27 -76 -49 -135 -78 -24 -12 -45 -27 -48 -35 -3 -7 -18 -15 -33 -18 -16 -3
-42 -17 -59 -31 -16 -15 -36 -26 -44 -26 -7 0 -30 -11 -50 -25 -20 -14 -41
-25 -46 -25 -5 0 -26 -13 -48 -30 -21 -16 -45 -30 -52 -30 -6 0 -20 -8 -30
-18 -10 -9 -39 -27 -65 -39 -26 -13 -47 -27 -47 -33 0 -5 -9 -10 -20 -10 -11
0 -39 -14 -62 -30 -22 -17 -47 -30 -53 -30 -7 0 -18 -7 -25 -15 -7 -8 -31 -24
-54 -35 -61 -30 -129 -70 -147 -86 -8 -8 -21 -14 -27 -14 -7 0 -31 -13 -54
-30 -22 -16 -47 -30 -54 -30 -8 0 -19 -9 -26 -20 -7 -11 -20 -20 -29 -20 -9 0
-34 -12 -55 -27 -33 -23 -49 -27 -109 -28 l-69 0 -12 40 c-9 28 -13 153 -13
421 -1 210 -4 402 -7 426 -4 25 -17 59 -29 74 l-23 29 -152 3 c-169 4 -191 1
-220 -30 -19 -21 -20 -34 -20 -452 0 -447 -4 -497 -41 -517 -30 -15 -94 -1
-147 32 -25 16 -50 29 -55 29 -5 0 -22 11 -39 25 -16 14 -38 25 -48 25 -9 0
-23 7 -31 16 -7 8 -34 26 -60 40 -26 13 -50 28 -54 34 -3 5 -13 10 -21 10 -8
0 -33 14 -56 30 -22 17 -49 30 -58 30 -10 0 -20 6 -23 14 -3 8 -26 22 -51 31
-25 10 -46 21 -46 26 0 4 -21 19 -47 32 -66 34 -91 48 -140 80 -24 15 -49 27
-57 27 -8 0 -19 6 -23 14 -4 7 -28 24 -52 36 -25 12 -51 29 -59 36 -7 8 -22
14 -33 14 -10 0 -19 3 -19 8 0 8 -57 42 -71 42 -5 0 -28 14 -51 30 -22 17 -48
30 -57 30 -9 0 -22 9 -29 20 -7 11 -18 20 -26 20 -7 0 -32 13 -54 30 -23 17
-48 30 -56 30 -7 0 -19 7 -26 14 -6 8 -31 23 -56 32 -24 9 -44 20 -44 24 0 4
-21 17 -47 29 -27 12 -63 32 -80 44 -68 46 -105 67 -119 67 -8 0 -14 4 -14 8
0 5 -24 21 -52 36 -111 58 -137 73 -163 94 -15 12 -32 22 -38 22 -6 0 -25 11
-43 25 -18 14 -38 25 -44 25 -6 0 -26 11 -43 24 -18 14 -44 28 -59 31 -16 4
-28 11 -28 16 0 5 -24 20 -52 34 -29 13 -82 43 -117 65 -34 22 -69 40 -77 40
-7 0 -17 6 -21 14 -4 8 -28 24 -53 35 -25 11 -76 41 -115 65 -38 25 -74 45
-78 46 -5 0 -23 11 -41 25 -18 14 -43 25 -54 25 -12 0 -22 5 -22 11 0 5 -25
21 -55 35 -30 14 -55 29 -55 33 0 4 -17 15 -39 24 -21 10 -48 26 -61 37 -13
11 -31 20 -42 20 -10 0 -18 4 -18 9 0 4 -22 19 -50 32 -28 13 -50 27 -50 30 0
4 -22 16 -49 28 -28 11 -53 26 -56 31 -4 6 -21 17 -38 25 -18 8 -54 28 -82 45
-27 17 -70 40 -95 52 -25 11 -47 25 -50 29 -3 5 -26 17 -52 28 -25 12 -51 28
-58 36 -7 8 -17 15 -22 15 -6 0 -30 14 -55 30 -24 17 -51 30 -59 30 -7 0 -14
4 -14 8 0 5 -21 19 -47 32 -27 13 -54 32 -61 42 -7 10 -19 18 -26 18 -41 0
-40 -15 -43 2366 -3 2464 -6 2351 48 2364 32 8 108 -6 128 -24z m1711 -1001
c22 -14 44 -25 50 -25 6 0 26 -11 43 -24 18 -14 44 -28 60 -31 15 -4 27 -10
27 -14 0 -4 24 -20 53 -35 60 -31 110 -60 149 -87 15 -11 33 -19 39 -19 7 0
20 -7 29 -15 18 -16 80 -53 155 -90 28 -14 73 -39 100 -57 88 -54 195 -115
255 -145 19 -9 42 -23 50 -29 8 -7 33 -22 55 -35 22 -12 63 -35 90 -51 28 -16
68 -38 90 -49 58 -31 172 -97 232 -136 18 -13 38 -23 44 -23 5 0 28 -13 51
-30 22 -16 49 -30 60 -30 10 0 18 -5 18 -11 0 -5 24 -21 53 -35 54 -26 103
-54 149 -85 15 -11 34 -19 42 -19 8 0 16 -4 18 -9 3 -10 88 -59 157 -92 25
-12 54 -30 65 -40 11 -11 25 -19 32 -19 21 0 92 -87 103 -126 16 -58 15 -2553
-1 -2606 -16 -56 -52 -72 -137 -64 -36 3 -109 10 -161 15 -52 5 -114 16 -138
25 -23 8 -68 20 -100 26 -33 6 -76 19 -98 29 -21 10 -55 21 -74 25 -19 3 -57
17 -84 31 -27 14 -55 25 -62 25 -6 0 -32 11 -55 25 -24 14 -50 25 -57 25 -19
0 -160 70 -173 86 -6 8 -19 14 -29 14 -10 0 -23 6 -29 13 -6 8 -30 22 -53 33
-24 10 -49 27 -56 36 -7 10 -18 18 -24 18 -5 0 -27 13 -48 30 -21 16 -45 30
-53 30 -9 0 -20 6 -24 13 -8 13 -151 124 -185 143 -11 6 -26 21 -34 33 -8 11
-19 21 -24 21 -8 0 -215 206 -260 261 -14 16 -36 42 -50 58 -14 17 -41 51 -60
77 -19 26 -43 55 -52 65 -10 11 -18 24 -18 29 0 6 -9 19 -20 30 -10 10 -28 37
-39 58 -11 21 -27 44 -35 51 -9 8 -16 20 -16 29 0 8 -6 23 -14 31 -16 18 -53
82 -91 156 -14 28 -29 57 -34 65 -10 17 -46 104 -68 165 -8 22 -21 54 -28 70
-49 106 -91 248 -120 395 -59 312 -68 407 -62 710 4 208 9 271 25 340 11 47
24 119 28 160 4 41 13 90 21 108 7 17 20 62 29 100 16 71 39 136 85 243 16 36
29 71 29 78 0 7 12 28 28 46 35 44 93 47 152 10z m5128 19 c14 -4 32 -25 47
-55 14 -26 29 -50 35 -54 5 -3 10 -15 10 -26 0 -11 11 -44 23 -72 13 -29 27
-68 31 -87 3 -19 15 -57 25 -85 26 -68 49 -162 67 -275 8 -52 25 -158 37 -235
31 -195 31 -446 0 -595 -12 -58 -25 -145 -29 -195 -3 -49 -10 -94 -14 -100
-10 -13 -40 -135 -40 -162 0 -11 -9 -42 -19 -69 -11 -27 -26 -69 -34 -94 -26
-80 -58 -164 -83 -216 -13 -28 -24 -57 -24 -63 0 -7 -9 -24 -20 -38 -11 -14
-22 -40 -26 -59 -3 -19 -10 -34 -16 -34 -5 0 -18 -21 -30 -47 -11 -25 -40 -75
-64 -110 -24 -35 -44 -68 -44 -72 0 -4 -9 -19 -20 -32 -45 -53 -90 -120 -90
-133 0 -8 -11 -21 -25 -30 -14 -9 -25 -21 -25 -27 0 -6 -9 -21 -19 -33 -11
-11 -46 -50 -77 -86 -75 -83 -288 -294 -334 -328 -19 -15 -39 -33 -43 -39 -4
-7 -14 -13 -22 -13 -8 0 -19 -9 -25 -20 -6 -11 -22 -23 -35 -26 -14 -3 -25 -9
-25 -13 0 -4 -22 -20 -50 -36 -27 -16 -50 -33 -50 -37 0 -5 -12 -13 -26 -18
-14 -6 -40 -21 -58 -35 -18 -14 -38 -25 -43 -25 -6 0 -16 -7 -23 -15 -6 -8
-36 -26 -66 -39 -30 -14 -54 -30 -54 -35 0 -6 -11 -11 -24 -11 -13 0 -40 -11
-60 -25 -20 -14 -43 -25 -50 -25 -7 0 -33 -11 -58 -24 -25 -13 -60 -27 -79
-31 -19 -4 -54 -18 -79 -31 -25 -13 -52 -24 -61 -24 -9 0 -42 -11 -73 -25 -31
-14 -70 -25 -87 -25 -17 0 -63 -11 -102 -24 -40 -13 -106 -26 -147 -30 -41 -3
-107 -8 -146 -12 -103 -9 -128 6 -143 88 -17 91 -9 2524 8 2587 13 48 57 98
108 125 17 8 37 21 45 28 7 7 47 30 88 52 41 21 100 53 130 71 30 19 79 46
108 61 28 15 52 31 52 36 0 4 7 8 15 8 8 0 37 14 63 30 27 17 52 30 56 30 4 0
22 11 40 25 18 14 36 25 40 25 5 0 22 10 39 23 18 12 48 30 67 40 93 46 203
107 218 120 9 8 33 23 52 32 19 10 37 21 40 25 3 4 21 15 40 24 19 8 62 31 95
51 33 19 74 42 90 51 17 8 55 30 85 49 30 18 77 46 105 60 27 15 52 30 55 33
3 4 39 25 80 46 41 22 86 48 99 58 13 10 28 18 33 18 6 0 24 10 41 23 18 12
48 30 67 39 37 19 110 59 175 98 22 13 60 34 85 48 25 13 50 28 55 32 21 17
76 23 113 14z"/>
<path d="M6086 8756 c-34 -8 -65 -21 -73 -31 -10 -15 -13 -88 -13 -346 0 -180
3 -335 6 -344 17 -43 141 -64 270 -46 135 20 134 20 152 59 15 32 17 78 17
327 0 250 -2 295 -17 327 -18 41 -19 41 -141 57 -95 13 -126 13 -201 -3z"/>
<path d="M3807 6483 c-52 -4 -60 -7 -77 -36 -18 -29 -20 -51 -20 -210 0 -176
0 -178 25 -202 l24 -25 338 0 c290 0 342 2 361 16 21 15 22 20 22 213 0 180
-2 201 -19 222 l-19 23 -288 2 c-159 1 -315 -1 -347 -3z"/>
<path d="M8047 6483 c-41 -4 -51 -9 -67 -36 -18 -29 -20 -51 -20 -208 0 -163
2 -178 21 -203 l20 -26 339 0 c186 0 350 4 363 9 36 14 50 97 45 263 -5 173
-13 191 -88 200 -57 6 -530 7 -613 1z"/>
</g>
</svg>
