<svg xmlns="http://www.w3.org/2000/svg" width="51" height="58" fill="none" viewBox="0 0 51 58">
  <path fill="url(#a)" d="M25.4.615c-.195.097-.35.2-.35.225 0 .03-.035.051-.076.051-.088 0-.39.144-.437.2a1.42 1.42 0 0 1-.246.149 9.48 9.48 0 0 0-.539.317c-.17.113-.339.205-.375.205-.03 0-.087.036-.123.077-.036.04-.159.122-.277.179-.113.061-.303.164-.416.23a14.32 14.32 0 0 1-.462.261 1.993 1.993 0 0 0-.282.174 1.17 1.17 0 0 1-.267.144c-.138.056-.246.128-.246.153 0 .031-.062.067-.133.082a1.15 1.15 0 0 0-.298.149c-.267.19-.678.425-1.206.696a1.608 1.608 0 0 0-.262.154.644.644 0 0 1-.154.092c-.216.107-.56.307-.642.374a2.628 2.628 0 0 1-.333.184c-.144.066-.257.143-.257.174 0 .026-.04.051-.092.051-.057 0-.2.067-.323.154a1.443 1.443 0 0 1-.267.153c-.026 0-.118.057-.21.128-.093.072-.19.128-.221.128-.026 0-.093.041-.15.098a1.001 1.001 0 0 1-.287.153.72.72 0 0 0-.272.159c-.051.056-.128.102-.174.102-.046 0-.175.072-.282.154-.113.087-.226.154-.252.154-.03 0-.092.035-.139.076-.097.087-.395.256-.805.456-.15.072-.272.154-.272.18 0 .03-.036.056-.077.056-.046 0-.175.061-.298.138-.339.22-.405.256-.688.404-.149.072-.272.154-.272.174 0 .02-.102.077-.226.123-.128.046-.256.123-.287.164-.036.036-.098.072-.133.072-.041 0-.17.066-.288.153-.113.082-.236.154-.261.154-.031 0-.093.036-.14.077-.091.082-.302.205-.805.46-.149.072-.272.16-.272.185 0 .025-.041.046-.092.046-.057 0-.19.067-.303.148a1.315 1.315 0 0 1-.313.18c-.062.02-.113.056-.113.076 0 .026-.077.072-.164.113a1.894 1.894 0 0 0-.319.17 7.24 7.24 0 0 1-.307.189c-.088.046-.262.143-.39.215a15.16 15.16 0 0 1-.96.522 1.58 1.58 0 0 0-.329.21c-.03.04-.087.071-.118.071-.03 0-.246.123-.477.272-.518.327-.693.43-1 .578-.14.067-.247.144-.247.174 0 .026-.041.052-.087.052-.052 0-.196.071-.324.153s-.251.154-.277.154c-.026 0-.087.036-.133.077-.098.087-.396.256-.806.455-.149.072-.272.154-.272.18 0 .03-.031.056-.072.056-.041 0-.22.092-.395.205-.18.112-.447.26-.59.332-.15.067-.278.139-.283.164-.01.02-.123.092-.251.159-.59.297-.79.481-.868.788-.077.313-.082 27.838-.005 28.258.057.307.18.44.6.66.134.072.257.144.273.159.015.015.108.072.205.123.098.051.216.112.257.138.23.133.39.23.549.333.092.066.2.118.23.118.032 0 .098.03.14.071.082.072.4.256.8.456.113.061.216.123.231.143.015.016.144.092.282.17.144.076.339.184.437.245.313.184.687.394.872.486.098.052.246.144.323.205.082.067.17.118.2.118.031 0 .134.056.226.128.093.072.195.128.231.128.036 0 .103.036.15.077.086.077.41.266.718.42.097.05.246.143.323.204.082.067.17.118.195.118.026 0 .139.056.251.128.113.072.237.128.278.128.036 0 .102.036.138.087.041.046.17.128.288.18.118.05.23.117.246.143.015.025.128.092.246.143.118.051.247.133.288.18.036.05.102.086.143.086.042 0 .15.057.242.128.092.072.195.128.23.128.031 0 .155.067.273.154.112.082.251.154.308.154.05 0 .092.02.092.05 0 .026.108.108.246.18l.55.312c.169.098.354.195.415.22.057.026.195.108.303.18.108.071.236.133.287.133.057 0 .098.02.098.051 0 .026.118.113.262.19.43.235.528.291.698.414a.7.7 0 0 0 .205.113c.02 0 .144.072.272.153.128.082.272.154.323.154.052 0 .103.03.118.072.016.04.103.102.19.138.093.036.236.118.329.184.087.062.19.118.22.118.031 0 .134.056.226.128.093.072.195.128.231.128.031 0 .154.072.272.154.113.081.252.153.303.153.051 0 .113.03.133.072.021.036.144.123.272.184.129.062.242.133.257.154.026.03.087.066.59.327.113.057.282.16.38.22a.674.674 0 0 0 .262.118c.051 0 .102.031.118.072.015.041.128.123.251.18.123.06.34.178.478.26.143.087.338.195.436.236.097.046.19.097.205.118.052.066.308.21.375.21.04 0 .113.046.164.102.051.056.113.102.144.102.025 0 .149.067.277.154.123.082.251.154.282.154.031 0 .098.03.139.071.082.077.4.261.723.425.098.051.247.144.324.205.082.067.17.118.2.118s.133.056.226.128c.092.072.195.128.226.128a.45.45 0 0 1 .195.097c.077.051.22.133.318.18.097.045.308.163.462.26.333.205.57.338 1.052.584.487.246.754.246 1.221.01.19-.097.37-.204.4-.245a.21.21 0 0 1 .129-.067c.041 0 .185-.067.318-.154a1.85 1.85 0 0 1 .293-.153c.025 0 .082-.03.123-.072.097-.087.457-.292.754-.435.118-.056.231-.123.247-.154.02-.03.143-.102.277-.158.128-.057.251-.123.267-.144.015-.02.108-.077.205-.133.534-.287.667-.358.924-.517.154-.092.375-.22.487-.276.113-.057.344-.19.514-.287a6.69 6.69 0 0 1 .436-.236.59.59 0 0 0 .154-.092c.015-.026.149-.102.297-.18.144-.07.267-.158.267-.183 0-.031.041-.052.093-.052.046 0 .19-.071.318-.153s.252-.154.272-.154c.026 0 .118-.056.21-.128.093-.072.206-.128.247-.128a.22.22 0 0 0 .149-.082.924.924 0 0 1 .277-.174.923.923 0 0 0 .277-.174c.036-.046.103-.082.144-.082.061 0 .307-.133.374-.205a.886.886 0 0 1 .154-.092c.072-.03.267-.138.436-.235.17-.098.416-.236.555-.313.133-.071.241-.153.241-.179 0-.03.041-.051.092-.051.052 0 .134-.03.19-.072.057-.035.242-.143.41-.235.17-.092.401-.22.514-.287.113-.061.288-.164.39-.22.098-.056.21-.138.247-.18.04-.045.102-.081.138-.081.056 0 .344-.149.688-.364.04-.025.159-.087.256-.133a2.39 2.39 0 0 0 .324-.205c.082-.066.174-.117.21-.117.041 0 .134-.052.21-.113.078-.062.216-.148.303-.195.088-.046.298-.158.467-.256.17-.092.39-.215.498-.26a.753.753 0 0 0 .206-.134c.005-.026.123-.092.261-.154.134-.066.242-.138.242-.168 0-.026.035-.052.082-.052.04 0 .174-.066.292-.143a4.85 4.85 0 0 1 .344-.21 4.63 4.63 0 0 0 .385-.21 18.5 18.5 0 0 1 .472-.256c.118-.061.241-.143.277-.184a.194.194 0 0 1 .134-.072.464.464 0 0 0 .21-.097c.134-.092.288-.184.78-.46a1.29 1.29 0 0 0 .257-.165.934.934 0 0 1 .205-.117c.098-.042.318-.16.488-.262.17-.097.38-.215.472-.256a.63.63 0 0 0 .195-.128c.015-.025.128-.092.246-.143.118-.051.247-.133.288-.18.036-.05.097-.086.133-.086.087 0 .385-.17.385-.22 0-.02.036-.036.082-.036.041 0 .18-.072.303-.154.123-.087.257-.153.298-.153.04 0 .113-.047.164-.103a.547.547 0 0 1 .2-.133 1.45 1.45 0 0 0 .257-.138c.087-.062.226-.143.308-.19.087-.046.297-.158.467-.256.169-.092.37-.204.446-.24a.603.603 0 0 0 .17-.118.686.686 0 0 1 .195-.128.87.87 0 0 0 .256-.205c.093-.133.098-1.367.087-25.64V14.76l-.164-.153a2.134 2.134 0 0 0-.4-.282 7.046 7.046 0 0 1-.436-.256 6.683 6.683 0 0 0-.421-.23c-.118-.056-.231-.123-.252-.154-.015-.03-.128-.097-.246-.153a6.785 6.785 0 0 1-.493-.277 3.683 3.683 0 0 0-.42-.235c-.083-.031-.144-.072-.144-.098 0-.02-.108-.092-.242-.153a15.936 15.936 0 0 1-1.426-.794 4.423 4.423 0 0 0-.473-.256c-.143-.072-.292-.164-.323-.205-.036-.04-.092-.076-.128-.076-.03 0-.16-.072-.272-.154-.118-.087-.252-.154-.293-.154-.04 0-.077-.02-.077-.04 0-.026-.107-.098-.24-.164a3.94 3.94 0 0 1-.427-.241.69.69 0 0 0-.267-.118c-.051 0-.092-.025-.092-.056 0-.026-.103-.097-.231-.154a3.966 3.966 0 0 1-.498-.281 4.27 4.27 0 0 0-.462-.261c-.108-.047-.195-.103-.195-.123 0-.016-.113-.082-.251-.144-.144-.056-.272-.128-.288-.158-.015-.026-.128-.098-.246-.154a6.44 6.44 0 0 1-.667-.379 6.547 6.547 0 0 0-.652-.369 1.695 1.695 0 0 1-.262-.163 2.652 2.652 0 0 0-.257-.16c-.097-.05-.287-.158-.43-.235-.14-.082-.37-.21-.514-.286-.575-.323-.734-.415-1.026-.61-.17-.107-.344-.2-.39-.2a.247.247 0 0 1-.154-.091 1.161 1.161 0 0 0-.278-.185 11.691 11.691 0 0 1-.96-.537 16.75 16.75 0 0 1-.374-.226 4.537 4.537 0 0 1-.18-.102c-.04-.026-.2-.102-.343-.174-.15-.072-.272-.149-.272-.174 0-.026-.052-.062-.113-.082a1.16 1.16 0 0 1-.319-.18c-.112-.081-.246-.148-.292-.148-.046 0-.098-.03-.113-.072-.015-.04-.133-.112-.262-.158-.128-.051-.236-.108-.236-.128 0-.02-.113-.087-.251-.149-.144-.056-.272-.133-.288-.158a.626.626 0 0 0-.195-.128 4.81 4.81 0 0 1-.42-.23 5.587 5.587 0 0 0-.473-.257c-.118-.061-.23-.123-.24-.148-.016-.026-.15-.103-.299-.18a4.783 4.783 0 0 1-.754-.445.464.464 0 0 0-.216-.097c-.056 0-.097-.02-.097-.046s-.123-.113-.267-.185c-.534-.271-1.309-.722-1.35-.793-.015-.026-.066-.051-.113-.051-.04 0-.143-.057-.23-.128-.083-.072-.185-.128-.221-.128-.036 0-.134-.052-.216-.118-.164-.128-.282-.2-.677-.405a6.167 6.167 0 0 1-.385-.22.404.404 0 0 0-.18-.077c-.036 0-.098-.04-.133-.087-.047-.056-.154-.087-.365-.097-.261-.015-.349.01-.646.164Zm1.036 2.78c.026.036.35.215.77.425.128.067.241.133.257.149.025.035.118.087.76.435.133.071.277.164.323.205a.277.277 0 0 0 .159.071.19.19 0 0 1 .138.072c.036.04.16.123.277.184.118.056.344.184.498.282.154.097.34.205.41.24a6.1 6.1 0 0 1 .32.18.864.864 0 0 0 .245.117c.031 0 .15.067.267.154.113.082.242.154.272.154.036 0 .093.03.123.071.037.041.15.118.252.174.441.236.55.292.575.323.03.03.287.174.41.225.041.016.206.108.36.205.154.097.385.236.513.307.128.072.349.2.487.287a7.8 7.8 0 0 0 .432.23c.092.041.215.123.277.18.056.05.133.097.17.097.035 0 .133.056.215.128.087.071.169.128.19.128.02 0 .153.066.292.153.134.082.282.154.323.154.041 0 .077.026.077.056 0 .026.124.108.272.18.144.071.396.204.55.302.154.097.354.21.436.25.087.047.272.149.41.236.144.087.375.215.514.287.143.066.374.2.523.292.149.092.41.25.58.353.175.107.344.194.38.194.041 0 .102.036.139.082.04.046.164.128.277.185.113.05.333.174.487.271.154.097.334.2.4.23.062.026.2.108.308.18.103.071.231.128.278.128.05 0 .092.025.092.056 0 .026.123.107.272.18.144.066.431.224.626.352.2.123.39.226.426.23.03 0 .062.016.062.037 0 .05.297.22.385.22.036 0 .092.036.128.077.036.04.159.123.277.184.282.138.529.276.606.343.072.056.441.261.785.435.113.062.216.123.23.144.016.015.119.081.237.138.113.056.236.143.272.184.041.046.103.082.139.082.04 0 .169.067.287.154.113.082.241.153.277.153.036 0 .134.072.22.159.13.128.16.2.16.384 0 .159-.02.225-.072.225-.036 0-.097.036-.138.082-.062.077-.283.205-.847.492-.154.076-.277.163-.277.194 0 .026-.047.051-.103.051-.057 0-.2.072-.318.154-.113.082-.236.154-.262.154-.03 0-.092.035-.139.076-.097.087-.405.262-.77.436-.128.061-.251.143-.271.184a.139.139 0 0 1-.108.072c-.041 0-.221.092-.395.204-.18.113-.452.262-.596.328-.149.072-.272.149-.272.174 0 .03-.061.067-.138.087a.962.962 0 0 0-.293.143c-.21.149-.318.216-.606.359a2.204 2.204 0 0 0-.318.184c-.04.036-.205.077-.359.092-.277.031-.293.026-.493-.169a1.205 1.205 0 0 1-.205-.23.63.63 0 0 0-.123-.18c-.508-.598-.698-.839-.698-.88 0-.025-.057-.087-.128-.133-.072-.046-.129-.107-.129-.138 0-.03-.272-.318-.6-.64-.786-.763-.816-.789-.857-.789-.02 0-.283-.21-.585-.46l-.668-.564c-.066-.056-.154-.102-.195-.102-.04 0-.072-.02-.072-.051 0-.026-.097-.098-.21-.159a5.337 5.337 0 0 1-.529-.317c-.405-.277-.482-.318-1.365-.758-1.031-.507-1.565-.732-2.001-.84a9.462 9.462 0 0 1-.462-.153c-.662-.23-1.212-.384-1.376-.384-.092 0-.416-.057-.718-.123-.95-.215-1.52-.261-3.167-.261-1.673 0-2.715.087-3.398.281a2.856 2.856 0 0 1-.538.103c-.185 0-.488.071-.734.174a3.349 3.349 0 0 1-.411.128 2.973 2.973 0 0 0-.41.133 2.13 2.13 0 0 1-.334.107 2.324 2.324 0 0 0-.447.154 1.827 1.827 0 0 1-.313.123c-.025 0-.21.072-.4.159l-.585.26c-.457.2-.903.426-1.057.538a.648.648 0 0 1-.21.118c-.032 0-.083.036-.119.077-.036.046-.19.138-.344.21-.149.071-.272.153-.272.179 0 .025-.036.046-.077.046-.082 0-.59.369-.882.645-.103.097-.2.174-.221.174a.542.542 0 0 0-.154.128c-.067.072-.144.128-.17.128-.025 0-.107.056-.18.123-.666.594-.908.82-1.246 1.157-.216.22-.529.558-.693.748-.164.194-.329.384-.364.42-.037.035-.067.087-.067.112 0 .026-.052.103-.113.17a3.85 3.85 0 0 0-.246.291c-.14.184-.18.23-.355.369-.133.112-.528.123-.62.02a.831.831 0 0 0-.288-.164c-.123-.046-.226-.102-.226-.123 0-.02-.092-.076-.205-.128a1.07 1.07 0 0 1-.288-.184c-.05-.056-.118-.097-.154-.097-.035 0-.169-.072-.292-.154-.128-.087-.267-.153-.313-.153-.046 0-.082-.02-.082-.046s-.123-.108-.267-.185c-.39-.194-.56-.292-.744-.425a.71.71 0 0 0-.21-.112c-.032 0-.088-.036-.13-.077a2.076 2.076 0 0 0-.322-.2c-.139-.072-.365-.19-.509-.261a8.43 8.43 0 0 1-.574-.333c-.18-.107-.37-.21-.426-.23-.057-.016-.103-.051-.103-.072 0-.02-.098-.082-.216-.133a1.373 1.373 0 0 1-.307-.184.978.978 0 0 0-.175-.139c-.041-.025-.092-.138-.108-.25-.025-.185-.01-.22.144-.37.097-.091.22-.188.277-.214.057-.026.241-.138.41-.246a4.56 4.56 0 0 1 .555-.317c.133-.062.241-.123.241-.144 0-.02.062-.061.144-.092.077-.036.277-.143.446-.24.17-.098.411-.236.54-.313a37.552 37.552 0 0 1 .897-.511c.088-.042.283-.16.437-.257.154-.097.39-.23.523-.302.134-.072.252-.153.272-.184.016-.026.062-.051.103-.051.036 0 .277-.128.528-.282.257-.154.483-.282.514-.282.025 0 .077-.036.113-.076.036-.046.18-.128.313-.185.138-.061.277-.138.308-.179a.207.207 0 0 1 .149-.072c.05 0 .117-.03.148-.071.036-.041.16-.123.277-.185.119-.056.344-.184.498-.281.154-.098.38-.226.498-.282.118-.061.241-.143.277-.184.031-.041.082-.072.108-.072.026 0 .205-.097.405-.22.4-.24.601-.353 1.047-.599a49.463 49.463 0 0 0 1.438-.82 8.2 8.2 0 0 1 .461-.255 6.8 6.8 0 0 0 .73-.425c.122-.077.24-.138.266-.138.026 0 .072-.036.108-.077.036-.041.159-.123.277-.18.113-.056.339-.173.493-.26.154-.088.364-.205.462-.262a8.09 8.09 0 0 0 .462-.271c.251-.159.523-.312.918-.538.077-.04.37-.2.647-.353.282-.148.539-.302.564-.333.031-.03.154-.107.283-.174.215-.107.38-.2.898-.496l.436-.256c.128-.072.35-.2.488-.282.143-.087.328-.19.41-.23a9.18 9.18 0 0 0 .488-.292c.185-.113.416-.23.513-.251.195-.041.78-.01.821.051Zm.41 10.829c.268.046.745.097 1.053.112.354.026.713.082.97.154a3.3 3.3 0 0 0 .523.123c.129 0 .935.246 1.443.44.174.067.359.123.41.123.052 0 .2.056.334.128.133.072.277.128.323.128.041 0 .17.056.282.128.113.072.242.128.283.128.04 0 .164.051.272.118.102.061.246.143.318.184.262.133.616.343.924.553.174.123.338.22.364.22.026 0 .098.057.16.128.06.072.133.128.158.128.052 0 .56.41.616.497.02.036.072.067.108.067.036 0 .113.05.17.112.061.067.25.246.43.4.632.558 1.484 1.459 1.484 1.566 0 .041.02.072.046.072.061 0 .416.604.416.706 0 .16-.19.4-.442.564a4.374 4.374 0 0 0-.308.21 1.17 1.17 0 0 1-.236.122.945.945 0 0 0-.246.144c-.041.04-.16.113-.257.159a6.452 6.452 0 0 0-.385.22c-.112.066-.338.194-.497.281-.165.087-.298.18-.298.205 0 .03-.041.051-.093.051-.056 0-.194.067-.307.154-.118.082-.242.154-.278.154-.03 0-.097.03-.138.071-.093.082-.441.287-.76.44a.971.971 0 0 0-.246.154c-.016.026-.128.092-.246.144a1.037 1.037 0 0 0-.288.179c-.036.05-.102.087-.144.087a.514.514 0 0 0-.21.097 6.086 6.086 0 0 1-.765.435c-.149.072-.272.154-.272.18 0 .03-.04.056-.092.056-.046 0-.18.061-.293.138a5.334 5.334 0 0 1-.723.42c-.118.051-.231.123-.247.154-.02.03-.133.097-.251.153a3.929 3.929 0 0 0-.318.169c-.057.036-.195.123-.308.19a6.36 6.36 0 0 1-.744.41c-.124.06-.242.127-.257.153-.015.02-.128.092-.257.148a4.423 4.423 0 0 0-.333.174l-.308.195a12.62 12.62 0 0 0-.308.19 8.178 8.178 0 0 1-.36.199 14.78 14.78 0 0 0-.384.205c-.144.076-.719.097-.719.02 0-.025-.087-.082-.19-.128a2.724 2.724 0 0 1-.272-.133 5.275 5.275 0 0 0-.344-.18c-.143-.066-.292-.158-.323-.199-.036-.04-.092-.077-.123-.077s-.149-.071-.257-.153c-.113-.087-.236-.154-.272-.154-.04 0-.123-.046-.185-.102a.64.64 0 0 0-.24-.139.593.593 0 0 1-.232-.122 1.151 1.151 0 0 0-.287-.17.89.89 0 0 1-.252-.153c-.036-.046-.092-.082-.128-.082-.03 0-.159-.072-.272-.153-.118-.087-.236-.154-.262-.154-.03 0-.138-.056-.24-.128a1.278 1.278 0 0 0-.314-.159c-.067-.02-.118-.05-.118-.076 0-.026-.103-.093-.226-.154a1.086 1.086 0 0 1-.292-.18c-.031-.04-.088-.071-.118-.071-.031 0-.16-.072-.288-.154-.128-.082-.272-.153-.318-.153-.051 0-.092-.026-.092-.056 0-.026-.124-.108-.267-.18a6.084 6.084 0 0 1-.632-.353 2.833 2.833 0 0 0-.42-.23c-.036 0-.067-.016-.067-.041 0-.046-.298-.215-.385-.215-.036 0-.093-.036-.128-.077a1.115 1.115 0 0 0-.277-.18c-.283-.138-.77-.414-.801-.455-.026-.036-.272-.17-.59-.333-.113-.056-.216-.118-.231-.143a1.249 1.249 0 0 0-.257-.144 6.671 6.671 0 0 1-.59-.332 2.833 2.833 0 0 0-.421-.23c-.036 0-.067-.021-.067-.047s-.123-.107-.272-.18c-.154-.07-.308-.163-.344-.209-.036-.041-.097-.077-.138-.077-.118 0-.072-.676.051-.804.051-.05.21-.256.354-.45.319-.425 1.145-1.265 1.684-1.705.21-.174.436-.354.492-.405.062-.05.144-.117.19-.143.041-.03.22-.159.39-.297.175-.133.334-.24.354-.24.026 0 .098-.057.165-.129.066-.071.138-.128.159-.128.02 0 .184-.092.359-.204.18-.113.431-.262.56-.333.128-.072.266-.149.307-.174.144-.087.765-.364.816-.364.031 0 .175-.051.324-.118.42-.184 1.144-.43 1.863-.624.17-.046.477-.133.682-.19a6.6 6.6 0 0 1 .95-.148c.693-.056 1.796-.195 1.832-.236.041-.04.688.016 1.232.108ZM4.312 17.962c.046.035.185.122.303.189.297.164.456.256.693.394a.887.887 0 0 0 .272.113c.04 0 .071.02.071.04 0 .026.124.108.272.18.154.072.308.169.344.215.036.04.082.077.108.077.026 0 .144.061.267.138.215.138.267.169.703.41.488.271.729.404 1.073.614.2.123.374.22.39.22a.78.78 0 0 1 .2.128c.092.072.185.128.21.128.103 0 .76.487.852.63.123.2.108.348-.082.83-.462 1.182-.708 1.904-.826 2.442-.041.19-.113.445-.154.563a3.265 3.265 0 0 0-.108.655c-.015.24-.051.476-.072.522-.092.175-.2 1.567-.2 2.545 0 1.07.057 1.848.18 2.565.04.24.097.574.118.743.067.445.39 1.659.605 2.278.2.563.278.778.344.932.041.092.103.266.139.389.036.118.097.24.138.271.036.031.067.087.067.118 0 .072.647 1.347.74 1.464.035.041.107.174.158.292.052.123.113.22.139.22.02 0 .04.031.04.067 0 .036.068.159.155.271.082.108.154.226.154.256 0 .031.056.108.128.174.072.067.129.144.129.175 0 .03.046.097.102.158.057.056.216.24.35.41.245.317.492.604.743.86.077.082.139.169.139.195 0 .02.056.081.128.128.067.046.139.122.154.179.02.05.062.097.103.097.036 0 .102.056.149.123a.413.413 0 0 0 .184.159c.057.015.103.066.103.102 0 .04.046.097.103.128.056.03.164.113.24.184.653.594 1.079.942 1.16.942.047 0 .098.047.114.103.015.056.087.117.159.133.067.015.123.051.123.077 0 .02.103.102.226.174.123.072.257.164.287.205a.24.24 0 0 0 .154.076c.052 0 .123.036.16.087.04.047.169.128.287.18.118.05.23.117.246.143.02.03.139.113.272.18.133.07.277.148.318.168.082.046.4.2.98.466.185.087.365.159.396.159.03 0 .133.046.226.097.092.056.272.128.4.159.128.03.328.102.446.159.124.05.267.097.324.097.056 0 .236.056.4.123.16.066.405.138.544.158.134.016.385.077.55.128.169.057.518.113.78.133.256.016.636.082.83.144.34.102.468.107 2.156.107 1.689 0 1.817-.005 2.156-.107.2-.062.58-.128.852-.143.272-.016.631-.077.806-.134a4.32 4.32 0 0 1 .631-.148c.18-.026.42-.087.534-.133.113-.051.333-.123.487-.164.154-.041.329-.102.385-.138.057-.036.185-.082.283-.103.097-.015.282-.082.41-.138.128-.061.37-.169.539-.246.37-.169.636-.297.744-.353.041-.026.16-.087.257-.138a9.62 9.62 0 0 0 .462-.246 8.59 8.59 0 0 1 .42-.225.603.603 0 0 0 .17-.118 1.29 1.29 0 0 1 .262-.154c.128-.066.246-.148.261-.184a.117.117 0 0 1 .103-.072c.041 0 .16-.061.252-.143.097-.077.251-.2.349-.282.092-.076.195-.138.225-.138.031 0 .088-.04.123-.092a.578.578 0 0 1 .155-.143c.282-.154 2.145-1.977 2.612-2.555.138-.17.282-.343.318-.39.036-.04.18-.24.318-.434.139-.195.272-.37.298-.385.046-.03.18-.266.344-.594.056-.117.128-.23.154-.245.056-.036.164-.225.652-1.173.174-.343.323-.645.323-.68 0-.031.056-.175.128-.313a1.47 1.47 0 0 0 .129-.312c0-.036.056-.17.123-.302.066-.134.133-.323.154-.425.02-.108.066-.256.107-.338a2.85 2.85 0 0 0 .15-.502c.04-.2.107-.44.148-.538.046-.097.093-.297.113-.435.02-.143.092-.47.16-.737.066-.261.122-.584.122-.717 0-.128.036-.522.077-.875.139-1.173.057-3.477-.159-4.583a17.775 17.775 0 0 1-.133-.717 5.602 5.602 0 0 0-.17-.69 5.49 5.49 0 0 1-.159-.615 1.904 1.904 0 0 0-.128-.43 1.776 1.776 0 0 1-.128-.384 2.158 2.158 0 0 0-.15-.415c-.215-.435-.384-.922-.384-1.116 0-.23.21-.492.539-.67.113-.062.297-.17.41-.236.113-.067.298-.175.411-.236a1.76 1.76 0 0 0 .23-.143c.016-.02.119-.082.232-.144.364-.184.718-.379.795-.445a.944.944 0 0 1 .206-.123c.072-.036.256-.143.41-.24.154-.098.339-.2.41-.231.073-.03.201-.113.293-.184.088-.067.195-.123.242-.123.04 0 .092-.026.107-.051.02-.031.139-.113.272-.18.319-.169.534-.297.714-.41.544-.363 1.124-.527 1.35-.383.066.04.077 1.433.077 12.006v11.96l-.221.2c-.118.113-.293.24-.385.287a.786.786 0 0 0-.19.123 1.66 1.66 0 0 1-.267.148c-.138.067-.246.139-.246.159 0 .026-.067.056-.154.077-.082.02-.154.051-.154.072 0 .02-.103.092-.231.153-.123.061-.241.133-.257.159-.015.025-.154.102-.308.174s-.282.154-.282.18c0 .03-.04.055-.092.055-.057 0-.2.067-.324.154a1.776 1.776 0 0 1-.256.154c-.02 0-.185.092-.36.204a5.63 5.63 0 0 1-.559.313c-.128.056-.251.138-.272.179-.02.04-.082.072-.128.072s-.19.071-.318.153a1.597 1.597 0 0 1-.272.154c-.026 0-.118.056-.21.128-.093.071-.196.128-.227.128-.036 0-.108.046-.159.097a1.522 1.522 0 0 1-.333.205c-.129.056-.236.128-.236.153 0 .031-.047.057-.103.057-.057 0-.2.066-.318.153-.113.082-.236.154-.262.154-.03 0-.093.036-.139.077-.097.087-.395.256-.805.456-.15.071-.272.153-.272.179 0 .03-.036.056-.083.056-.04 0-.174.061-.292.138a4.74 4.74 0 0 1-.688.405c-.149.077-.272.153-.272.174 0 .02-.102.077-.226.123-.128.046-.256.122-.287.163-.036.036-.098.072-.139.072-.04 0-.174.067-.297.154a1.476 1.476 0 0 1-.262.153c-.02 0-.077.036-.123.077-.098.087-.395.256-.806.456-.149.072-.272.154-.272.18 0 .03-.041.055-.092.055-.052 0-.185.067-.298.149a1.227 1.227 0 0 1-.313.18c-.067.02-.118.055-.118.081 0 .026-.129.102-.283.174-.153.072-.282.154-.282.18 0 .03-.046.056-.107.056a.624.624 0 0 0-.267.112c-.195.139-.39.251-.693.4-.123.061-.231.138-.247.179-.015.036-.092.077-.169.092a.827.827 0 0 0-.303.159c-.082.077-.185.133-.226.133-.035 0-.154.056-.256.128a.846.846 0 0 1-.236.128c-.026 0-.134.066-.247.153-.107.082-.23.154-.267.154-.03 0-.102.04-.154.092-.05.046-.2.138-.333.2-.134.066-.241.138-.241.169 0 .025-.046.051-.103.051-.056 0-.2.072-.318.154-.113.087-.241.153-.272.153-.036 0-.093.036-.129.077-.035.04-.159.123-.277.18-.313.153-.662.358-.754.44a.258.258 0 0 1-.139.071c-.036 0-.159.067-.277.154-.113.082-.241.153-.277.153-.041 0-.098.046-.133.103-.036.056-.103.102-.15.102-.045 0-.174.062-.281.138-.17.118-.252.139-.56.144h-.354l-.062-.205c-.046-.143-.066-.783-.066-2.155-.006-1.076-.02-2.059-.036-2.182a.978.978 0 0 0-.15-.379l-.117-.148-.78-.015c-.868-.02-.98-.005-1.13.153-.097.108-.102.174-.102 2.315 0 2.288-.02 2.544-.21 2.647-.154.076-.483.005-.755-.164-.128-.082-.256-.149-.282-.149-.026 0-.113-.056-.2-.128-.082-.072-.195-.128-.247-.128a.254.254 0 0 1-.159-.082 1.542 1.542 0 0 0-.308-.205c-.133-.066-.256-.143-.277-.174-.015-.025-.067-.05-.108-.05-.04 0-.17-.072-.287-.154-.113-.087-.252-.154-.298-.154-.051 0-.102-.03-.118-.072-.015-.04-.133-.112-.262-.158-.128-.052-.236-.108-.236-.133 0-.021-.107-.098-.24-.164a6.613 6.613 0 0 1-.72-.41c-.123-.077-.25-.138-.292-.138a.148.148 0 0 1-.118-.072c-.02-.036-.144-.123-.267-.184a1.734 1.734 0 0 1-.303-.184.255.255 0 0 0-.169-.072c-.051 0-.098-.016-.098-.041 0-.041-.292-.215-.364-.215-.026 0-.144-.072-.262-.154-.113-.087-.246-.153-.292-.153-.046 0-.113-.047-.15-.103-.035-.056-.091-.102-.132-.102-.036 0-.165-.067-.278-.154-.118-.087-.246-.153-.287-.153-.036 0-.098-.036-.133-.072-.031-.041-.16-.118-.288-.164-.123-.046-.226-.102-.226-.123 0-.02-.108-.087-.241-.148a2.94 2.94 0 0 1-.41-.226c-.35-.235-.54-.343-.611-.343-.041 0-.072-.02-.072-.04 0-.026-.123-.108-.267-.185-.57-.297-.703-.374-.837-.481-.077-.062-.164-.113-.195-.113-.03 0-.128-.056-.22-.128-.093-.072-.195-.128-.226-.128a.646.646 0 0 1-.22-.123.911.911 0 0 0-.304-.158c-.082-.02-.143-.057-.143-.082 0-.026-.123-.103-.267-.174a6.196 6.196 0 0 1-.6-.333c-.175-.113-.355-.205-.396-.205a.139.139 0 0 1-.108-.072c-.02-.04-.143-.123-.272-.179a6.671 6.671 0 0 1-.59-.333 3.64 3.64 0 0 0-.4-.235c-.026 0-.118-.056-.21-.128-.093-.072-.221-.128-.278-.128-.061 0-.113-.026-.113-.056 0-.026-.128-.108-.282-.18-.154-.071-.282-.148-.282-.169 0-.02-.087-.077-.2-.123a1.74 1.74 0 0 1-.313-.189.418.418 0 0 0-.216-.102c-.051 0-.092-.02-.092-.047 0-.02-.113-.097-.257-.163-.144-.067-.257-.139-.257-.154 0-.02-.113-.082-.251-.143-.144-.057-.272-.133-.288-.159a.627.627 0 0 0-.195-.128 4.837 4.837 0 0 1-.42-.23 5.86 5.86 0 0 0-.488-.267 1.058 1.058 0 0 1-.257-.148c-.015-.026-.133-.087-.266-.144a1.268 1.268 0 0 1-.298-.184c-.036-.04-.087-.077-.113-.077-.03 0-.154-.071-.282-.153-.124-.087-.262-.154-.303-.154-.036 0-.072-.02-.072-.04 0-.026-.108-.098-.241-.165-.139-.066-.277-.163-.313-.215-.036-.05-.098-.092-.134-.092-.21 0-.205.077-.22-12.114-.016-12.615-.031-12.037.246-12.103.164-.041.554.03.657.123Zm8.781 5.125c.113.071.226.128.257.128.03 0 .133.056.22.122a.887.887 0 0 0 .308.16c.077.02.14.05.14.07 0 .021.122.103.271.18.308.159.565.307.765.445a.52.52 0 0 0 .2.098c.036 0 .103.036.149.077.092.081.41.27.795.46.144.072.375.2.514.292.451.277 1 .589 1.308.743.098.046.216.117.257.148a2.9 2.9 0 0 0 .282.18c.113.06.323.178.462.26.144.082.35.195.462.251.298.159.883.497 1.19.697a.67.67 0 0 0 .226.117c.026 0 .144.067.262.154.113.082.252.154.308.154.052 0 .093.025.093.056 0 .025.123.107.272.18.277.132.528.276.764.434a.502.502 0 0 0 .216.098c.04 0 .082.02.092.046.016.05.452.302.806.47.128.062.277.154.334.206.056.056.128.097.164.097.108 0 .472.445.529.645.082.297.076 13.071-.006 13.343-.082.286-.267.368-.703.327-.184-.015-.56-.05-.826-.077-.267-.025-.585-.081-.708-.128a4.335 4.335 0 0 0-.514-.133 2.544 2.544 0 0 1-.503-.148 2.077 2.077 0 0 0-.38-.128 1.81 1.81 0 0 1-.43-.159 1.298 1.298 0 0 0-.319-.128c-.03 0-.164-.056-.282-.128-.123-.072-.256-.128-.293-.128-.097 0-.82-.358-.887-.44a.207.207 0 0 0-.15-.072.223.223 0 0 1-.148-.066c-.03-.041-.154-.113-.272-.17a.892.892 0 0 1-.288-.184c-.035-.05-.092-.092-.123-.092-.025 0-.138-.066-.246-.153-.108-.082-.23-.154-.272-.154a.158.158 0 0 1-.123-.067c-.041-.066-.775-.635-.95-.732a.606.606 0 0 1-.174-.169c-.041-.056-.098-.107-.123-.107-.041 0-1.104-1.055-1.335-1.337l-.256-.297a10.1 10.1 0 0 1-.308-.394 5.226 5.226 0 0 0-.267-.333c-.052-.056-.093-.122-.093-.148 0-.03-.046-.097-.102-.154a1.558 1.558 0 0 1-.2-.297 1.172 1.172 0 0 0-.18-.26c-.046-.042-.082-.103-.082-.15 0-.04-.03-.117-.072-.158-.082-.092-.272-.42-.467-.799a6.605 6.605 0 0 0-.175-.332 9.246 9.246 0 0 1-.348-.845 7.362 7.362 0 0 0-.144-.359c-.252-.542-.467-1.27-.616-2.022-.303-1.598-.35-2.084-.318-3.635.02-1.065.046-1.388.128-1.741.056-.24.123-.61.144-.82.02-.21.066-.46.107-.552a4.6 4.6 0 0 0 .15-.512c.082-.364.2-.697.436-1.244.082-.185.148-.364.148-.4 0-.036.062-.143.144-.235.18-.226.478-.24.78-.051Zm26.319-.098c.072.02.164.128.241.282.072.133.149.256.18.276.025.016.051.077.051.133 0 .057.056.226.118.37.067.148.139.347.16.445.014.097.076.291.127.435.134.348.252.83.344 1.408.041.266.129.809.19 1.203.16.998.16 2.284 0 3.046a9.835 9.835 0 0 0-.149.999c-.015.25-.051.481-.072.512-.05.066-.205.691-.205.83 0 .056-.046.214-.097.353a7.873 7.873 0 0 0-.175.48c-.133.41-.297.84-.426 1.107a1.66 1.66 0 0 0-.123.322.474.474 0 0 1-.103.195.85.85 0 0 0-.133.302c-.015.097-.051.174-.082.174-.026 0-.093.108-.154.24a4.41 4.41 0 0 1-.329.564c-.123.179-.225.348-.225.368a.5.5 0 0 1-.103.164c-.231.272-.462.615-.462.681 0 .041-.056.108-.128.154-.072.046-.129.107-.129.138 0 .03-.046.108-.097.17a12.21 12.21 0 0 0-.395.44c-.385.424-1.478 1.505-1.715 1.679a1.61 1.61 0 0 0-.22.2.146.146 0 0 1-.113.066c-.041 0-.098.046-.128.102a.317.317 0 0 1-.18.134c-.072.015-.128.046-.128.066 0 .02-.113.102-.257.184-.139.082-.257.17-.257.19 0 .025-.061.066-.133.092a1.55 1.55 0 0 0-.298.18.708.708 0 0 1-.22.127c-.031 0-.082.036-.118.077-.031.04-.185.133-.34.2-.153.071-.276.153-.276.179 0 .03-.057.056-.123.056a.697.697 0 0 0-.308.128c-.103.072-.221.128-.257.128-.036 0-.17.056-.298.123a1.993 1.993 0 0 1-.405.159c-.098.02-.277.092-.406.158-.128.067-.267.123-.313.123-.046 0-.215.057-.374.128-.16.072-.36.128-.447.128-.087 0-.323.057-.523.123a4.295 4.295 0 0 1-.755.154c-.21.015-.549.04-.75.061-.528.046-.656-.03-.733-.45-.087-.466-.046-12.923.041-13.246.067-.245.293-.502.554-.64.088-.04.19-.107.231-.143.036-.036.241-.154.452-.266.21-.108.513-.272.667-.364a9 9 0 0 1 .554-.312c.144-.077.267-.159.267-.184 0-.02.036-.041.077-.041s.19-.072.324-.154a1.48 1.48 0 0 1 .287-.154.78.78 0 0 0 .205-.128.779.779 0 0 1 .206-.128.64.64 0 0 0 .2-.117c.092-.062.246-.154.344-.205.477-.236 1.042-.548 1.118-.615.047-.04.17-.117.267-.163.098-.052.19-.108.206-.128a.884.884 0 0 1 .205-.123c.097-.041.318-.159.487-.261.17-.098.38-.215.462-.261.088-.041.283-.154.437-.251.154-.093.395-.236.538-.308.14-.076.267-.153.283-.169.015-.02.2-.128.41-.235.21-.113.442-.246.508-.297a.466.466 0 0 1 .17-.092c.03 0 .123-.051.21-.118a3.33 3.33 0 0 1 .344-.2c.19-.097.565-.302.898-.501.113-.067.308-.174.437-.246.128-.067.256-.144.282-.164.108-.087.39-.118.58-.072Z"/>
  <path fill="url(#b)" d="M25.235 16.17c-.174.04-.333.107-.374.158-.052.077-.067.45-.067 1.771 0 .922.015 1.716.03 1.762.088.22.724.328 1.386.235.693-.102.688-.102.78-.302.078-.164.088-.4.088-1.674 0-1.28-.01-1.51-.087-1.674-.093-.21-.098-.21-.724-.292-.488-.067-.647-.067-1.032.015Z"/>
  <path fill="url(#c)" d="M13.539 27.807c-.267.02-.308.036-.395.185-.093.148-.103.26-.103 1.075 0 .9 0 .911.128 1.034l.123.128h1.735c1.489 0 1.755-.01 1.853-.082.108-.077.113-.102.113-1.09 0-.922-.01-1.03-.098-1.137l-.097-.118-1.478-.01a46.782 46.782 0 0 0-1.781.015Z"/>
  <path fill="url(#d)" d="M35.3 27.807c-.21.02-.262.046-.344.185-.092.148-.103.26-.103 1.064 0 .835.01.912.108 1.04l.103.133h1.74c.954 0 1.796-.02 1.863-.046.185-.072.256-.497.23-1.347-.025-.885-.066-.978-.45-1.024-.293-.03-2.721-.036-3.147-.005Z"/>
  <defs>
    <linearGradient id="a" x1="25.949" x2="25.949" y1="57.597" y2=".447" gradientUnits="userSpaceOnUse">
      <stop stop-color="#53D610"/>
      <stop offset="0" stop-color="#53D610"/>
      <stop offset=".621" stop-color="#A6E884"/>
      <stop offset="1" stop-color="#ACE98D"/>
    </linearGradient>
    <linearGradient id="b" x1="25.936" x2="25.936" y1="20.129" y2="16.106" gradientUnits="userSpaceOnUse">
      <stop stop-color="#53D610"/>
      <stop offset="0" stop-color="#53D610"/>
      <stop offset=".621" stop-color="#A6E884"/>
      <stop offset="1" stop-color="#ACE98D"/>
    </linearGradient>
    <linearGradient id="c" x1="15.017" x2="15.017" y1="30.229" y2="27.791" gradientUnits="userSpaceOnUse">
      <stop stop-color="#53D610"/>
      <stop offset="0" stop-color="#53D610"/>
      <stop offset=".621" stop-color="#A6E884"/>
      <stop offset="1" stop-color="#ACE98D"/>
    </linearGradient>
    <linearGradient id="d" x1="36.878" x2="36.878" y1="30.229" y2="27.787" gradientUnits="userSpaceOnUse">
      <stop stop-color="#53D610"/>
      <stop offset="0" stop-color="#53D610"/>
      <stop offset=".621" stop-color="#A6E884"/>
      <stop offset="1" stop-color="#ACE98D"/>
    </linearGradient>
  </defs>
</svg>
