<svg xmlns="http://www.w3.org/2000/svg" width="14" height="19" fill="none" viewBox="0 0 14 19">
  <path fill="#C2C2C2" d="M2.402 1.5C2 2.196 2 3.13 2 5v3.027C2.43 8 2.914 8 3.435 8h7.13c.52 0 1.005 0 1.435.027V5c0-1.87 0-2.804-.402-3.5A3 3 0 0 0 10.5.402C9.804 0 8.87 0 7 0S4.196 0 3.5.402A3 3 0 0 0 2.402 1.5ZM1.25 12.991c-.502-.02-.806-.088-1.014-.315-.297-.324-.258-.774-.18-1.675.055-.65.18-1.088.467-1.415C1.035 9 1.858 9 3.505 9h6.99c1.647 0 2.47 0 2.982.586.286.326.412.764.468 1.415.077.9.116 1.351-.181 1.675-.208.227-.512.295-1.014.315V18a.75.75 0 1 1-1.5 0v-5h-8.5v5a.75.75 0 1 1-1.5 0v-5.009Z"/>
</svg>
